<svg width="422" height="275" viewBox="0 0 422 275" fill="none" xmlns="http://www.w3.org/2000/svg">
<path d="M423.569 158.706C426.008 160.016 428.623 160.16 431.339 160.139C440.259 160.073 449.179 160.133 458.099 160.166C460.79 160.149 463.473 160.459 466.089 161.09C466.089 161.452 466.086 161.815 466.081 162.178C461.958 161.591 457.799 161.292 453.634 161.283C430.957 161.303 408.279 161.308 385.602 161.297C324.314 161.297 263.025 161.294 201.736 161.289C199.636 161.289 197.804 160.889 197.821 164.282C197.96 191.488 197.97 218.694 197.851 245.899C197.845 248.126 198.408 248.808 200.702 248.799C226.811 248.72 252.92 248.717 279.028 248.79C281.495 248.796 282.185 247.881 282.145 245.54C282.031 238.802 282.003 232.058 282.131 225.322C282.476 207.07 297.088 191.554 314.937 190.369C334.444 189.069 350.97 202.03 353.686 220.836C354.812 228.636 354.171 236.501 354.107 244.328C354.078 247.834 355.021 248.835 358.578 248.828C406.505 248.71 454.433 248.695 502.361 248.784C505.947 248.784 509.151 248.131 511.912 245.784L512.589 246.449C510.425 249.122 507.489 250.04 504.199 250.074C498.36 250.134 492.522 250.155 486.683 250.192C485.101 250.146 483.518 250.069 481.936 250.066C480.803 250.066 479.816 249.787 479.147 251.474C475.531 260.92 468.331 268.556 459.114 272.721L457.762 273.115C457.95 273.25 458.131 273.494 458.324 273.502C459.301 273.551 460.282 273.547 461.26 273.548L545.039 273.625C545.003 274.438 544.76 275.032 543.771 274.998C542.782 274.964 541.811 274.998 540.83 274.998C376.878 274.998 212.926 274.957 48.9739 274.875C39.9639 274.865 30.9269 274.475 21.8989 274.382C21.3199 274.376 20.6579 274.542 20.2319 273.637C23.0549 272.559 26.0319 273.643 29.0819 272.928C28.2637 271.333 27.0021 270.007 25.4489 269.112L26.1849 267.634C26.0549 261.317 28.8459 258.734 35.7219 258.797L37.0489 258.838C38.6139 260.927 40.9569 262.466 41.1769 265.479C41.3899 268.404 40.1859 270.718 37.7839 273.021H45.8679C49.0389 273.08 52.2089 273.178 55.3809 273.189C62.9379 273.214 62.9379 273.197 62.7579 265.406C62.7693 264.465 62.7809 263.525 62.7929 262.586C62.8676 262.047 62.9419 261.508 63.0159 260.969L64.1809 261.06C64.1709 261.67 64.1909 262.28 64.1469 262.887C63.7259 268.761 64.0699 269.181 69.9019 269.148C71.3644 269.159 72.8203 268.951 74.2209 268.53C75.8209 268.014 77.9099 267.902 78.1889 265.539C80.3789 265.097 81.2949 268.149 83.5609 267.498L90.0339 268.481C91.1459 269.197 92.7739 269.66 93.2759 270.681C94.9059 273.981 97.5569 273.11 100.176 272.859C97.0309 271.788 94.5469 269.569 91.6079 268.185C90.6029 266.847 89.3741 265.694 87.9759 264.775C84.6689 260.752 81.3949 256.708 79.8459 251.6C79.6519 250.544 78.7929 250.745 78.0819 250.664C78.1659 249.57 78.1979 248.469 78.3469 247.384C78.5149 246.165 78.1469 245.623 76.8299 245.557C73.5142 245.401 70.3043 244.341 67.5479 242.492C66.0709 241.512 65.3029 241.945 65.2709 243.736C65.2549 244.589 65.1359 245.436 65.0649 246.291L63.9869 246.267C63.9866 245.724 63.8772 245.187 63.6652 244.688C63.4532 244.188 63.143 243.736 62.7529 243.359C60.3857 240.734 59.0931 237.314 59.1319 233.779C59.0449 224.06 59.1449 214.341 59.1699 204.621C59.6009 203.039 58.5609 202.902 57.4309 202.854C58.6239 198.208 58.1419 197.006 54.1649 194.712C54.1779 194.328 54.1889 193.945 54.1999 193.561C55.4359 193.726 55.5629 192.947 55.5559 192.009C55.6567 190.076 55.6417 188.14 55.5109 186.209C55.0879 182.893 56.2599 180.656 59.3499 179.409L60.3929 179.438C60.1359 182.098 59.8519 184.758 60.6329 187.438C62.7139 181.295 66.4119 175.76 66.8049 169.117H67.8969C67.4342 174.739 66.9716 180.359 66.5089 185.979C65.4729 185.986 64.3539 185.879 64.4429 187.458C63.3089 192.158 60.1369 196.235 60.1209 201.272C60.0903 211.389 60.0903 221.507 60.1209 231.627C60.1209 233.248 59.8549 234.97 61.2629 236.538C61.3989 235.258 61.5129 234.179 61.6279 233.1L62.7059 233.118C62.5499 234.311 62.4259 235.51 62.2329 236.697C61.7529 239.646 62.4239 241.109 65.9619 240.786C70.2284 240.44 74.5159 240.436 78.7829 240.776C81.7359 240.984 82.4019 239.747 82.7959 237.157C84.9559 223.029 87.2859 208.938 89.5559 194.838L90.6849 194.847C90.8219 195.789 89.8629 196.886 91.0849 197.675C91.0359 197.451 90.9849 197.226 90.9339 197.003L90.5899 197.171L91.0959 197.663C92.4099 195.2 95.9899 195.415 97.0369 192.639C97.4143 192.639 97.7916 192.637 98.1689 192.632L102.876 209.978L102.11 210.955C100.41 205.971 100.31 205.947 96.2999 209.624C84.1909 220.724 84.1279 243.449 96.1739 254.585C102.574 260.503 110.947 261.805 118.2 257.934C119.278 257.358 120.929 257.055 120.47 255.146L121.648 255.159C122.948 258.572 124.241 261.991 125.567 265.394C125.942 266.356 126.019 267.666 127.613 267.468C131.713 266.962 135.477 265.735 138.287 262.484C138.743 261.958 139.4 261.364 138.666 260.616C135.312 257.203 135.142 252.43 133.348 248.352C132.983 247.523 133.07 245.66 131.397 246.439C127.267 248.366 123.066 247.198 118.882 247.053L118.903 245.703C123.225 244.376 127.524 242.973 131.877 241.761C133.898 241.199 134.484 240.575 133.864 238.244C129.783 222.893 125.947 207.479 122.73 191.919L123.982 191.892C141.004 198.943 149.181 211.673 148.512 230.082C148.34 234.854 148.596 239.642 148.446 244.415C148.346 247.515 149.408 248.824 152.677 248.794C166.402 248.676 180.129 248.701 193.855 248.794C196.038 248.808 196.784 248.318 196.777 245.971C196.692 218.649 196.687 191.326 196.763 164.003C196.763 161.96 196.254 161.248 194.114 161.253C169.603 161.32 145.092 161.32 120.581 161.253C118.14 161.245 118.081 162.169 118.481 164.115C119.37 168.426 120.054 172.778 120.821 177.115L119.706 177.153C118.719 171.524 117.732 165.895 116.747 160.265L118.308 160.151C125.775 160.136 133.241 160.12 140.708 160.105C158.454 160.055 176.199 160.004 193.944 159.949L200.516 159.959C206.616 160.008 212.716 160.105 218.821 160.096C238.236 160.071 257.65 160.024 277.065 159.956L300.535 160.228C304.728 160.564 308.942 160.564 313.135 160.228C317.422 160.189 321.71 160.123 325.998 160.117C357.993 160.071 389.986 160.032 421.979 160.001C422.379 160.028 422.969 160.308 422.721 159.454L423.568 158.705M306.033 272.605C295.286 267.823 288.64 259.345 284.45 247.643C280.221 259.352 273.598 267.872 262.797 272.62C262.303 272.779 261.63 272.527 261.288 273.311H307.819C307.819 273.183 307.826 273.056 307.83 272.928L306.03 272.604M339.261 272.593C338.788 272.709 337.937 272.766 337.906 272.953C337.742 273.971 338.646 273.594 339.08 273.592C350.713 273.543 362.347 273.472 373.98 273.38H427.038C423.954 271.822 421.073 270.069 418.164 268.365L414.779 265.343C412.405 262.574 409.424 259.951 408.42 256.535C406.43 249.765 401.807 249.315 396.187 250.201L382.994 250.155H370.485C367.8 250.118 365.106 250.197 362.432 250.006C360.517 249.87 359.632 250.658 358.907 252.352C355.245 261.398 348.198 268.659 339.265 272.591M338.278 232.236C338.257 224.236 336.02 217.003 330.548 211.02C322.272 201.97 309.807 201.958 301.392 210.887C290.951 221.962 290.892 242.145 301.271 253.306C309.847 262.53 322.615 262.382 330.921 252.887C336.073 246.997 338.221 239.987 338.278 232.237M230.985 273.237C220.664 269.156 213.935 261.637 209.701 251.713C209.52 251.145 209.143 250.66 208.637 250.345C208.131 250.03 207.529 249.906 206.94 249.994C189.794 250.031 172.648 250.031 155.502 249.994C154.97 249.902 154.423 249.997 153.953 250.262C153.483 250.526 153.119 250.945 152.922 251.448C151.744 254.093 150.401 256.663 148.997 259.525C150.345 259.525 151.437 259.451 152.517 259.542C154.287 259.692 156.217 260.176 156.641 262.018C157.079 263.904 154.911 264.079 153.748 264.747C149.182 267.371 144.548 269.878 139.941 272.43C170.404 273.445 200.641 273.755 230.986 273.23" fill="#050605"/>
<path d="M502.969 183.022C508.522 189.611 512.454 197.41 514.449 205.794L513.327 205.829C513.027 204.897 512.744 203.961 512.427 203.029C512.3 202.514 512.05 202.037 511.698 201.64C511.346 201.243 510.903 200.937 510.407 200.749C509.911 200.561 509.376 200.496 508.85 200.56C508.323 200.624 507.82 200.815 507.383 201.116C506.933 201.439 506.557 201.856 506.281 202.336C506.005 202.817 505.835 203.352 505.783 203.904C504.957 208.381 502.249 209.343 497.932 209.277C481.148 209.02 464.353 208.933 447.575 209.306C441.975 209.431 437.536 208.285 434.098 203.848C431.954 201.081 429.141 200.485 425.708 200.519C408.676 200.68 391.644 200.582 374.608 200.607C372.73 200.607 371.08 200.59 369.808 198.746C366.194 193.506 362.408 188.383 358.698 183.213C357.977 182.208 357.186 181.202 357.967 179.881C358.738 178.581 360.004 178.768 361.233 178.853C383.597 180.394 405.946 182.209 428.333 183.399C452.661 184.699 477.016 186.585 501.376 183.762L502.965 183.016" fill="#050605"/>
<path d="M67.895 169.108H66.803C66.445 167.836 65.927 168.355 65.384 168.975C62.8986 172.006 61.1856 175.594 60.392 179.433L59.349 179.403C59.7833 174.862 61.7936 170.616 65.031 167.403C66.3333 166.129 67.1202 164.42 67.241 162.603C68.209 149.911 69.341 137.231 69.051 124.48C69.0753 123.144 68.8504 121.816 68.388 120.563C66.164 115.009 64.131 109.378 61.967 103.8C61.567 102.757 61.532 101.242 59.767 101.339C56.686 101.509 56.092 99.3788 55.51 96.9778C52.968 86.4968 51.849 75.9898 54.871 65.4308C56.848 58.5308 60.564 52.7148 66.604 48.6308C70.92 45.7158 76.095 45.5518 80.99 44.6888C84.147 44.1338 86.159 43.0578 86.059 39.5688L87.14 39.6168C87.0932 42.5115 86.6491 45.386 85.82 48.1598C85.096 45.2348 83.714 45.3248 82.184 45.6918C80.759 46.0338 79.319 46.3358 77.872 46.5598C76.035 46.8448 75.718 47.5438 76.68 49.2168C79.196 53.5848 81.897 57.8028 85.695 61.1758C89.525 64.5758 93.825 66.9418 99.035 64.7048C102.594 63.1778 104.263 57.3298 103.259 51.5608C103.071 50.4868 103.03 49.1408 101.759 48.8488C97.583 47.8998 96.859 44.7538 96.641 41.2138L98.041 41.0708C98.068 44.6098 99.56 46.9548 103.175 47.8758C110.934 49.8518 114.585 55.6898 116.794 62.7628C118.152 66.6827 118.831 70.8055 118.802 74.9538L117.731 74.9638C117.598 73.9988 117.463 73.0358 117.331 72.0718C116.492 65.8318 115.101 59.7718 111.145 54.6608C109.531 52.5768 107.791 50.5088 104.892 50.3808C104.892 52.3538 104.956 54.1808 104.881 56.0078C104.487 65.5338 97.15 69.7248 88.819 65.1228C87.1254 64.1423 85.5517 62.9677 84.13 61.6228C80.5975 58.384 77.7372 54.4815 75.712 50.1378C74.434 47.4198 72.972 47.2378 70.568 48.2458C63.752 51.1048 59.784 56.5768 57.235 63.1238C52.713 74.7418 54.279 86.4538 57.257 98.1238C57.3285 98.6059 57.5714 99.046 57.9411 99.3634C58.3109 99.6808 58.7827 99.8542 59.27 99.8518C64.454 100.2 69.529 100.03 74.329 97.6318C76.369 96.6128 77.029 95.4428 76.601 93.0318C75.2826 86.301 74.6395 79.4554 74.681 72.5968C74.708 71.3838 74.288 69.9688 75.56 68.9578C75.842 69.2638 76.107 69.4188 76.108 69.5738C76.1001 78.0189 76.8113 86.4494 78.234 94.7738C78.334 95.3388 78.384 96.2828 78.077 96.4898C75.535 98.2148 77.029 100.39 77.3 102.415C77.512 104.002 78 104.802 79.879 103.844C89.192 99.1038 99.568 96.4788 107.864 89.7188L108.596 90.3948C108.59 90.6598 108.583 90.9248 108.578 91.1948L108.648 91.1088C98.129 98.6638 85.736 102.151 73.793 108.138C73.8225 107.602 74.0073 107.087 74.3248 106.655C74.6424 106.223 75.0789 105.893 75.581 105.705C76.729 105.022 76.141 103.98 76.021 103.071C75.921 102.293 75.487 101.571 74.61 101.757C70.743 102.589 66.892 101.845 62.51 101.357C64.65 106.991 66.568 112.115 68.543 117.22C70.632 122.626 73.358 123.769 78.443 121.183C89.435 115.583 100.411 109.955 111.308 104.178C112.761 103.408 116.063 103.372 114.393 99.9938C114.863 99.6647 115.351 99.3613 115.854 99.0848C117.12 100.857 119.322 98.3568 120.591 100.121C114.521 102.348 114.615 108.093 114.599 112.721C114.572 120.131 115.941 127.549 116.134 135.305C117.869 135.134 118.868 134.022 120.007 133.272C128.481 127.696 136.489 121.326 146.237 117.925C150.274 116.517 154.306 115.081 158.619 114.746C158.619 115.108 158.626 115.47 158.63 115.831C151.808 117.25 145.202 119.558 138.98 122.695C132.159 126.335 126.143 131.214 119.565 135.208C116.753 136.916 115.507 138.848 116.373 142.029C116.217 148.132 116.868 154.228 118.308 160.161L116.747 160.276C114.44 150.419 115.063 140.34 114.508 130.353C114.156 122.846 113.364 115.367 112.135 107.953C107.484 110.894 103.006 113.594 97.982 114.553C92.076 115.678 86.959 118.387 81.787 121.104C78.224 122.975 74.736 124.99 70.293 122.738C71.003 138.721 69.324 153.914 67.893 169.121M98.993 112.434L98.074 112.845C98.237 112.907 98.412 113.037 98.562 113.013C98.903 112.961 99.243 112.84 98.952 112.376C99.1846 112.529 99.4648 112.593 99.7408 112.555C100.017 112.517 100.269 112.38 100.452 112.17C100.488 112.131 100.416 111.895 100.344 111.864C99.706 111.589 99.312 111.931 98.992 112.433M108.316 107.48L101.107 111.101L101.557 111.901C104.152 111.092 106.599 109.865 108.8 108.27C109.134 108.07 109.723 107.964 109.4 107.409C109.077 106.854 108.679 107.37 108.319 107.483M110.54 107.198C110.632 107.098 110.711 107.018 110.791 106.937C110.637 106.843 110.471 106.768 110.299 106.713C110.237 106.699 110.141 106.859 110.059 106.939L110.54 107.198Z" fill="#28272F"/>
<path d="M158.631 115.821C158.631 115.459 158.624 115.097 158.62 114.737C163.064 113.629 167.606 113.608 172.134 113.604C202.153 113.577 232.171 113.592 262.189 113.649C264.878 113.657 265.912 113.028 266.379 110.191C267.794 101.581 267.961 101.605 276.71 101.601C284.551 101.601 292.396 101.706 300.233 101.542C303.151 101.48 304.671 102.47 305.613 105.271C308.427 113.623 308.523 113.53 317.165 113.616C321.686 113.662 326.227 113.181 330.729 113.964C330.712 114.313 330.695 114.664 330.679 115.013C328.97 114.933 327.26 114.783 325.549 114.783C275.949 114.77 226.346 114.76 176.742 114.752C170.686 114.641 164.631 114.999 158.631 115.822" fill="#050605"/>
<path d="M87.1378 39.6169L86.0538 39.5689C86.7448 36.8229 86.0758 34.6689 84.3078 32.2599C80.5818 27.1869 81.2448 21.7229 84.7388 16.1489C81.3798 16.1199 78.4188 15.6789 76.5098 12.9349C75.9211 12.1518 75.4941 11.2594 75.2537 10.3096C75.0134 9.35986 74.9644 8.37174 75.1098 7.40288C75.7468 3.39488 79.7208 0.166874 83.4098 0.677874C88.3558 1.36387 90.8098 5.53989 89.8558 12.1279C95.6738 10.5129 101.049 11.0009 105.304 15.6039C106.843 17.1976 107.942 19.1634 108.495 21.309C109.047 23.4547 109.034 25.707 108.456 27.8459H107.334C106.861 26.5249 105.609 26.6849 104.597 26.4379C101.638 25.7169 98.5278 25.1749 95.9968 23.5269C92.4618 21.2269 89.6098 19.9709 87.6558 25.1659C87.1898 26.0387 86.3998 26.6937 85.4558 26.9899C83.0728 27.7709 83.7018 29.0899 84.5678 30.5629C87.4888 35.5169 91.8978 37.4339 97.5098 36.8959C97.5598 37.3959 97.6098 37.8959 97.6628 38.3959L98.0208 41.0709L96.6208 41.2129C92.6508 41.8949 90.0268 39.8429 87.7868 36.0999C87.4728 37.7689 87.2988 38.6929 87.1268 39.6169" fill="#050605"/>
<path d="M108.596 90.3949L107.864 89.7189C110.015 88.5639 111.264 87.0189 110.971 84.3189C110.791 82.6689 111.289 80.9539 111.371 79.2619C111.339 78.9591 111.377 78.6529 111.483 78.3674C111.589 78.0819 111.759 77.8248 111.981 77.6163C112.203 77.4078 112.471 77.2536 112.762 77.1657C113.054 77.0779 113.362 77.0588 113.662 77.1099L115.226 77.1279C117.405 77.9549 117.868 76.8109 117.715 74.9609L118.786 74.9509C118.801 76.6949 119.142 78.0419 121.415 77.8439C123.384 77.6729 123.925 78.8269 123.715 80.6499C123.46 82.8379 123.321 85.0419 123.231 87.2419C123.199 88.0129 122.831 88.8029 123.631 89.5889C125.131 91.0679 124.893 93.7509 123.294 95.5279C121.409 94.2799 120.053 94.8889 119.047 96.8709C120.109 96.2612 121.351 96.0456 122.556 96.2619C122.086 97.6379 123.19 99.8149 120.594 100.11C119.326 98.3459 117.123 100.846 115.857 99.0739C113.85 98.1219 114.357 96.8929 115.815 95.3969C113.581 96.3859 112.241 94.2249 111.178 94.2969C108.132 94.5059 108.501 92.9269 108.655 91.0969L108.586 91.1829C108.958 91.3569 109.317 91.2829 109.356 90.8829C109.37 90.7439 108.869 90.5559 108.603 90.3909M117.789 98.0419C117.889 97.8129 118.051 97.6109 118.046 97.4139C118.041 97.2169 117.868 97.0269 117.768 96.8339C117.676 97.0339 117.51 97.2339 117.511 97.4339C117.512 97.6339 117.681 97.8239 117.789 98.0449" fill="#050605"/>
<path d="M54.202 193.551C54.191 193.935 54.178 194.318 54.167 194.702C48.789 192.702 43.396 190.745 38.038 188.693C29.059 185.253 28.491 185.482 24.993 194.557C17.6043 213.717 10.214 232.878 2.82203 252.039C1.64103 255.086 1.24203 258.208 4.62803 259.639C11.684 262.617 18.683 265.839 26.191 267.628L25.455 269.107C18.487 266.499 11.469 264.017 4.57102 261.236C0.781018 259.709 -0.328975 256.397 1.17102 252.504C9.02502 232.099 16.8834 211.696 24.746 191.296C27.096 185.205 29.768 184.004 35.775 186.332C41.925 188.716 48.059 191.143 54.2 193.551" fill="#28272F"/>
<path d="M330.678 115.012L330.728 113.963C332.287 113.796 333.558 114.617 334.855 115.248C363.938 129.391 393.015 143.548 422.084 157.719C422.601 158.013 423.097 158.344 423.568 158.708L422.721 159.457L421.958 159.629C421.143 158.308 419.658 158.143 418.41 157.561C401.738 149.386 385.097 141.147 368.382 133.061C357.614 127.85 347.048 122.214 336.005 117.58C334.465 116.235 332.457 115.859 330.678 115.014" fill="#28272F"/>
<path d="M97.674 38.3957C97.622 37.895 97.5707 37.395 97.52 36.8957C99.8071 36.3813 101.919 35.2743 103.643 33.6858C105.367 32.0973 106.643 30.0832 107.342 27.8457H108.464C107.314 33.8647 103.016 36.6617 97.675 38.3947" fill="#28272F"/>
<path d="M122.553 96.2668C121.349 96.0502 120.106 96.2663 119.046 96.8768C120.052 94.8938 121.408 94.2858 123.292 95.5318L122.553 96.2668Z" fill="#28272F"/>
<path d="M513.328 205.828C513.861 208.788 514.392 211.748 514.92 214.707C515.027 222.29 515.152 229.873 515.234 237.455C515.198 240.546 514.014 243.513 511.912 245.78C509.151 248.13 505.947 248.788 502.361 248.78C454.432 248.723 406.505 248.737 358.578 248.823C355.022 248.831 354.078 247.83 354.107 244.323C354.172 236.495 354.813 228.63 353.686 220.83C350.97 202.024 334.444 189.067 314.937 190.363C297.087 191.548 282.476 207.063 282.131 225.316C282.003 232.053 282.031 238.796 282.145 245.534C282.184 247.876 281.494 248.79 279.028 248.784C252.92 248.717 226.811 248.72 200.702 248.792C198.408 248.799 197.846 248.118 197.851 245.892C197.925 218.687 197.915 191.481 197.821 164.275C197.804 160.883 199.634 161.283 201.736 161.283C263.025 161.293 324.314 161.296 385.602 161.291C408.28 161.291 430.957 161.286 453.634 161.277C457.799 161.286 461.958 161.585 466.081 162.172C479.132 164.936 490.446 170.83 499.471 180.796C500.252 181.658 501.471 182.315 501.381 183.763C477.021 186.584 452.666 184.694 428.338 183.4C405.956 182.208 383.606 180.395 361.238 178.852C360.01 178.768 358.743 178.579 357.972 179.881C357.191 181.201 357.982 182.207 358.703 183.211C362.418 188.381 366.203 193.505 369.813 198.745C371.085 200.589 372.735 200.609 374.613 200.606C391.647 200.579 408.679 200.679 425.713 200.516C429.146 200.484 431.959 201.08 434.103 203.846C437.541 208.283 441.983 209.428 447.58 209.304C464.358 208.931 481.153 209.018 497.937 209.275C502.255 209.341 504.962 208.375 505.788 203.901C505.84 203.349 506.01 202.814 506.286 202.333C506.562 201.852 506.938 201.436 507.388 201.112C507.825 200.811 508.328 200.62 508.855 200.556C509.382 200.492 509.916 200.557 510.412 200.745C510.908 200.934 511.351 201.24 511.703 201.637C512.055 202.034 512.305 202.511 512.432 203.026C512.745 203.953 513.032 204.89 513.332 205.821M239.399 180.121V180.106C240.982 180.106 242.565 180.137 244.147 180.097C244.422 180.129 244.702 180.099 244.964 180.008C245.226 179.918 245.465 179.77 245.662 179.574C245.859 179.379 246.01 179.142 246.103 178.881C246.196 178.62 246.229 178.341 246.2 178.065C246.211 177.818 246.17 177.571 246.078 177.342C245.986 177.113 245.845 176.906 245.667 176.735C245.488 176.564 245.274 176.434 245.041 176.353C244.807 176.272 244.559 176.242 244.313 176.265C241.15 176.213 237.985 176.206 234.818 176.244C233.564 176.258 232.685 176.879 232.771 178.259C232.854 179.604 233.761 180.113 235.016 180.118C236.477 180.124 237.938 180.118 239.4 180.118" fill="#FCFCFC"/>
<path d="M67.8939 169.108C69.3239 153.902 71.0029 138.708 70.2939 122.726C74.7379 124.978 78.2249 122.962 81.7889 121.091C86.9619 118.373 92.0779 115.664 97.9839 114.541C103.008 113.585 107.484 110.884 112.137 107.941C113.365 115.355 114.158 122.834 114.51 130.341C115.065 140.328 114.443 150.408 116.749 160.264C117.735 165.893 118.721 171.522 119.708 177.152C120.412 182.132 121.422 187.065 122.731 191.922C125.948 207.483 129.784 222.897 133.865 238.248C134.485 240.579 133.899 241.201 131.878 241.763C127.525 242.976 123.226 244.38 118.904 245.705C115.961 246.966 114.671 246.075 113.69 242.874C110.309 231.841 106.513 220.935 102.876 209.979L98.1649 192.635C97.61 190.315 97.1761 187.967 96.8649 185.602C96.1569 177.157 97.8239 168.802 97.9169 160.358C98.0289 149.987 97.5989 139.558 99.3459 129.241C99.7249 127.002 100.084 125.432 103.027 125.486C104.61 125.515 106.718 125.537 108.356 123.516C104.062 123.906 105.399 121.525 105.898 119.524C106.223 118.224 107.126 116.955 106.344 115.269C104.814 116.605 104.712 118.289 104.469 119.716C104.012 122.407 102.816 124.625 100.262 125.263C98.2159 125.773 98.4139 126.989 98.1179 128.363C96.2229 137.146 97.0019 146.171 95.6499 154.999C93.6165 168.279 91.5869 181.56 89.5609 194.841C87.2879 208.941 84.9529 223.031 82.8009 237.149C82.4009 239.739 81.7399 240.976 78.7859 240.767C74.5188 240.428 70.2314 240.431 65.9649 240.778C62.4269 241.099 61.7569 239.638 62.2359 236.689C62.4279 235.503 62.5529 234.304 62.7079 233.11C62.9439 230.803 63.2249 228.501 63.4079 226.191C64.4552 212.785 65.4885 199.378 66.5079 185.971C66.9705 180.349 67.4332 174.728 67.8959 169.108" fill="#FCFCFC"/>
<path d="M120.824 177.113C120.056 172.777 119.371 168.425 118.482 164.113C118.082 162.167 118.141 161.243 120.582 161.251C145.092 161.325 169.603 161.325 194.114 161.251C196.254 161.245 196.767 161.958 196.763 164.001C196.702 191.323 196.707 218.646 196.777 245.969C196.784 248.318 196.038 248.806 193.855 248.792C180.13 248.702 166.402 248.677 152.678 248.792C149.408 248.82 148.349 247.51 148.446 244.411C148.596 239.638 148.339 234.85 148.512 230.078C149.178 211.638 141.002 198.908 123.983 191.888C122.928 186.96 121.874 182.032 120.822 177.105M163.188 180.113V180.093C164.899 180.093 166.611 180.122 168.322 180.083C168.569 180.093 168.816 180.052 169.047 179.964C169.278 179.876 169.49 179.743 169.668 179.571C169.847 179.4 169.989 179.194 170.086 178.967C170.184 178.739 170.234 178.495 170.235 178.247C170.268 178.001 170.247 177.75 170.174 177.513C170.101 177.276 169.977 177.057 169.81 176.872C169.644 176.688 169.44 176.541 169.211 176.444C168.983 176.346 168.736 176.299 168.488 176.306C165.188 176.225 161.888 176.237 158.588 176.258C158.34 176.239 158.091 176.273 157.858 176.356C157.624 176.44 157.41 176.572 157.231 176.744C157.052 176.915 156.911 177.123 156.817 177.353C156.724 177.583 156.679 177.83 156.688 178.078C156.669 178.356 156.71 178.634 156.81 178.894C156.91 179.154 157.065 179.389 157.265 179.583C157.465 179.776 157.705 179.924 157.968 180.015C158.231 180.106 158.511 180.138 158.788 180.11C160.255 180.118 161.723 180.11 163.188 180.11" fill="#FCFCFC"/>
<path d="M418.412 157.56C419.657 158.142 421.145 158.309 421.96 159.628C421.919 159.682 421.898 159.75 421.902 159.818C421.906 159.886 421.934 159.951 421.981 160.001C389.986 160.039 357.993 160.078 326.001 160.119C321.713 160.125 317.425 160.191 313.136 160.228C308.941 159.923 304.73 159.923 300.536 160.228L277.065 159.956C278.657 156.39 278.952 152.88 276.325 149.656C269.629 141.436 262.908 133.236 256.163 125.056C252.587 120.702 248.069 117.768 242.381 117.68C229.529 117.48 216.67 117.645 203.815 117.586C201.479 117.575 200.615 118.436 200.515 120.808C200.055 131.791 200.015 131.732 210.363 135.249C221.112 138.903 231.821 142.669 242.533 146.425C243.416 146.735 244.711 146.902 244.872 147.959C245.061 149.196 243.644 149.269 242.867 149.726C240.657 151.026 238.21 151.996 236.198 153.542C232.998 155.999 229.975 155.892 226.308 154.542C219.326 151.98 212.157 149.921 205.062 147.669C200.953 146.369 200.586 146.626 200.562 150.769C200.544 153.829 200.531 156.889 200.523 159.95L193.952 159.94C193.939 155.774 193.823 151.605 193.952 147.44C194.023 145.164 193.432 143.871 191.041 143.178C185.06 141.445 179.2 139.292 173.217 137.565C166.326 135.572 166.292 135.692 170.46 129.958C175.451 123.092 175.451 123.094 183.291 125.696C184.219 126.003 185.156 126.285 186.083 126.596C194.159 129.296 194.075 129.302 193.965 120.72C193.935 118.335 193.24 117.448 190.814 117.569C183.493 117.934 176.177 117.506 168.824 118.158C159.338 119.068 150.065 121.532 141.378 125.449C132.078 129.521 124.726 136.513 116.378 142.007C115.511 138.827 116.757 136.894 119.57 135.186C126.148 131.192 132.164 126.315 138.985 122.673C145.207 119.537 151.813 117.23 158.635 115.809C164.635 114.986 170.689 114.628 176.744 114.739C226.344 114.775 275.947 114.786 325.553 114.77C327.262 114.77 328.972 114.92 330.683 115C332.462 115.846 334.469 116.221 336.009 117.566C313.961 117.577 291.912 117.585 269.862 117.59C267.208 117.59 264.585 117.573 263.435 120.606C262.335 123.506 264.397 125.172 266.135 126.873C276.359 136.904 286.633 146.873 296.819 156.928C297.452 157.576 298.216 158.081 299.06 158.408C299.904 158.736 300.809 158.879 301.713 158.828C339.442 158.777 377.171 158.75 414.9 158.747C416.158 158.747 417.686 159.247 418.413 157.554" fill="#FCFCFC"/>
<path d="M26.1869 267.629C18.6789 265.838 11.6799 262.619 4.62391 259.64C1.23691 258.21 1.63693 255.088 2.82393 252.04C10.2446 232.892 17.6346 213.731 24.9939 194.558C28.4939 185.484 29.0609 185.258 38.0389 188.695C43.3969 190.747 48.7899 192.703 54.1679 194.702C58.1449 197.002 58.6259 198.202 57.4339 202.845C50.1979 221.494 42.9626 240.143 35.7279 258.793C28.8529 258.724 26.0589 261.313 26.1909 267.629M15.9159 262.247L17.2099 262.747L44.1839 192.72L42.8909 192.22C33.8996 215.563 24.9076 238.905 15.9149 262.246" fill="white"/>
<path d="M338.278 232.245C338.223 239.993 336.078 247.007 330.922 252.896C322.616 262.389 309.849 262.538 301.272 253.315C290.894 242.154 290.951 221.971 301.393 210.895C309.808 201.968 322.273 201.979 330.549 211.03C336.021 217.012 338.257 224.248 338.278 232.245Z" fill="#E0212D"/>
<path d="M120.472 255.149C120.929 257.057 119.28 257.36 118.2 257.937C110.949 261.809 102.577 260.506 96.1759 254.588C84.1289 243.449 84.1919 220.731 96.3019 209.627C100.311 205.95 100.416 205.974 102.11 210.958C105.865 222.702 109.623 234.445 113.383 246.188C113.662 247.057 113.771 248.588 115.052 248.075C117.995 246.886 117.941 249.275 118.636 250.763C119.305 252.199 119.864 253.685 120.472 255.149" fill="#E0212D"/>
<path d="M370.485 250.164H383C383.064 251.209 383.867 251.591 384.663 251.875C390.202 253.848 395.004 257.145 399.899 260.275L400.067 260.568L400.195 260.438L399.895 260.275C399.453 256.628 397.095 253.686 396.195 250.207C401.814 249.322 406.439 249.771 408.429 256.543C409.429 259.958 412.414 262.58 414.787 265.349C413.452 265.903 412.103 266.425 410.787 267.023C410.246 267.27 409.687 267.688 409.863 268.392C410.052 269.155 410.787 268.992 411.363 269.081C413.694 269.429 415.902 268.617 418.17 268.373C421.08 270.073 423.961 271.83 427.045 273.388H373.988L372.73 272.659C371.91 268.568 372.754 266.235 376.056 265.759C379.197 265.31 382.289 264.514 385.698 265.038C389.776 265.666 393.65 266.996 398.169 267.757C398.441 267.805 398.241 267.712 398.03 267.646C397.636 267.524 397.563 267.646 397.876 267.91C398.054 268.032 398.256 268.116 398.469 268.157C398.5 268.165 398.583 267.987 398.169 267.757C397.447 265.878 395.879 265.4 394.679 264.708C390.611 262.463 386.178 260.955 381.585 260.254C373.216 258.793 370.796 256.554 370.485 250.154" fill="#80FF53" fill-opacity="0.63"/>
<path d="M45.8679 273.016H37.7799C40.1799 270.716 41.3869 268.4 41.1729 265.474C40.9539 262.461 38.6099 260.922 37.0449 258.833C37.3859 258.051 37.7559 257.279 38.0629 256.484C44.4459 239.976 50.7999 223.457 57.2629 206.984C57.5879 206.154 57.1189 204.233 59.1629 204.613C59.1379 214.332 59.0379 224.051 59.1249 233.771C59.0859 237.305 60.3778 240.725 62.7439 243.351C63.1341 243.728 63.4445 244.18 63.6567 244.679C63.8688 245.179 63.9784 245.716 63.9789 246.259C63.6943 249.009 63.4099 251.759 63.1259 254.509C59.8659 253.157 56.6609 251.64 53.3259 250.489C47.3789 248.433 44.2029 248.941 43.2259 251.789C42.1169 255.021 44.5999 257.6 50.7889 259.403C54.7589 260.56 58.7829 261.532 62.7829 262.586C62.7716 263.525 62.7599 264.465 62.7479 265.405C58.6099 265.374 54.5069 264.565 50.3239 265.325C45.0539 266.28 43.8689 268.113 45.8579 273.025" fill="#FCFCFC"/>
<path d="M65.0619 246.281C65.1339 245.43 65.2509 244.581 65.2619 243.726C65.2939 241.935 66.0619 241.502 67.5389 242.481C70.2951 244.332 73.5055 245.392 76.8219 245.548C78.1399 245.614 78.5079 246.157 78.3389 247.375C78.1899 248.459 78.1579 249.561 78.0739 250.655C77.5469 254.837 76.6299 258.989 77.1079 263.247C77.2759 264.114 77.2659 265.077 78.3079 265.477L78.1869 265.534C77.9079 267.897 75.8229 268.009 74.2189 268.525C72.8176 268.946 71.3611 269.155 69.8979 269.143C64.0669 269.175 63.7219 268.756 64.1439 262.882C64.1879 262.275 64.1679 261.665 64.1779 261.055C64.4712 256.13 64.7649 251.205 65.0589 246.281" fill="#FCFCFC"/>
<path d="M118.885 247.054C123.069 247.197 127.269 248.365 131.399 246.44C133.073 245.659 132.985 247.522 133.35 248.353C135.144 252.429 135.315 257.204 138.668 260.617C139.403 261.364 138.745 261.959 138.291 262.485C135.481 265.736 131.716 266.961 127.617 267.469C126.023 267.669 125.946 266.357 125.571 265.395C124.243 261.995 122.954 258.573 121.65 255.158L118.886 247.058" fill="#FCFCFC"/>
<path d="M89.5588 194.84C91.5882 181.559 93.6178 168.278 95.6478 154.998C96.9998 146.169 96.2218 137.144 98.1158 128.362C98.4158 126.989 98.2158 125.773 100.26 125.262C102.813 124.625 104.01 122.407 104.467 119.716C104.71 118.29 104.812 116.606 106.341 115.269C107.125 116.955 106.222 118.221 105.896 119.524C105.396 121.524 104.06 123.906 108.354 123.516C106.715 125.537 104.609 125.516 103.025 125.486C100.082 125.433 99.7248 127.002 99.3428 129.241C97.5968 139.558 98.0278 149.986 97.9138 160.358C97.8228 168.798 96.1558 177.158 96.8638 185.602C97.1771 187.968 97.6131 190.315 98.1698 192.636C97.7925 192.636 97.4152 192.638 97.0378 192.643C95.5158 188.116 95.2558 183.315 93.6438 178.657C92.6578 184.057 91.6725 189.454 90.6878 194.85L89.5588 194.84Z" fill="#28272F"/>
<path d="M61.6278 233.09C61.5138 234.17 61.3988 235.249 61.2648 236.528C59.8568 234.96 60.1258 233.238 60.1218 231.617C60.0964 221.498 60.0964 211.38 60.1218 201.262C60.1368 196.226 63.3088 192.15 64.4438 187.448C65.9568 188.925 64.8898 190.648 64.7758 192.203C63.7868 205.836 62.6918 219.462 61.6288 233.089" fill="#D0E0FC"/>
<path d="M59.1688 204.612C57.1258 204.232 57.5968 206.153 57.2688 206.983C50.8038 223.458 44.4488 239.977 38.0688 256.483C37.7618 257.283 37.3918 258.049 37.0508 258.832L35.7258 258.791C42.9605 240.141 50.1958 221.491 57.4318 202.843C58.5608 202.891 59.6008 203.028 59.1708 204.61" fill="#28272F"/>
<path d="M118.885 247.058L121.649 255.158C121.258 255.158 120.866 255.154 120.473 255.145C119.866 253.682 119.306 252.196 118.637 250.76C117.937 249.268 117.996 246.883 115.053 248.072C113.773 248.589 113.663 247.054 113.384 246.185C109.617 234.445 105.86 222.702 102.111 210.956C102.368 210.631 102.623 210.302 102.878 209.977C106.516 220.933 110.31 231.839 113.691 242.872C114.673 246.072 115.961 246.964 118.906 245.703L118.885 247.055" fill="#28272F"/>
<path d="M61.6309 233.09C62.6939 219.463 63.7889 205.837 64.7779 192.204C64.8919 190.647 65.9589 188.926 64.4459 187.449C64.3559 185.87 65.4749 185.978 66.5119 185.97C65.4799 199.377 64.4465 212.784 63.4119 226.19C63.2309 228.501 62.9489 230.803 62.7119 233.109L61.6319 233.091" fill="#28272F"/>
<path d="M90.688 194.849C91.674 189.449 92.6593 184.051 93.644 178.655C95.257 183.315 95.516 188.115 97.039 192.641C95.99 195.418 92.41 195.203 91.096 197.665L91.083 197.679C89.867 196.887 90.825 195.79 90.683 194.848" fill="#FCFCFC"/>
<path d="M60.3919 179.429C61.1851 175.59 62.8981 172.002 65.3839 168.971C65.9269 168.351 66.4459 167.832 66.8029 169.104C66.4089 175.747 62.7129 181.281 60.6319 187.425C59.8509 184.751 60.1319 182.089 60.3919 179.425" fill="#D0E0FC"/>
<path d="M120.824 177.118C121.877 182.046 122.931 186.973 123.985 191.901L122.731 191.928C121.423 187.07 120.413 182.137 119.708 177.156L120.824 177.118" fill="#28272F"/>
<path d="M63.0178 260.966C63.0545 258.813 63.0925 256.661 63.1318 254.509C63.4165 251.757 63.7008 249.007 63.9848 246.258L65.0628 246.283C64.7708 251.208 64.4778 256.132 64.1838 261.058L63.0188 260.967" fill="#28272F"/>
<path d="M62.7943 262.581C58.7943 261.526 54.7703 260.556 50.8003 259.398C44.6123 257.598 42.1283 255.016 43.2373 251.783C44.2143 248.938 47.3913 248.43 53.3373 250.483C56.6673 251.634 59.8723 253.151 63.1323 254.503C63.0929 256.657 63.0546 258.81 63.0173 260.962C62.9413 261.5 62.8666 262.039 62.7933 262.578" fill="#ADEF50"/>
<path d="M45.8682 273.016C43.8792 268.108 45.0682 266.275 50.3342 265.316C54.5172 264.556 58.6202 265.365 62.7582 265.396C62.9392 273.188 62.9392 273.205 55.3812 273.18C52.2102 273.169 49.0392 273.071 45.8682 273.012" fill="#ADEF50"/>
<path d="M83.5631 267.495C81.2971 268.146 80.3812 265.095 78.1912 265.536L78.3131 265.479C79.4941 264.72 78.2302 263.955 78.3202 263.193C78.7082 259.31 78.3201 255.326 79.8441 251.593C81.3941 256.7 84.6682 260.744 87.9742 264.767C86.5552 265.758 84.5552 265.813 83.5622 267.494" fill="#ADEF50"/>
<path d="M91.6062 268.176C94.5452 269.561 97.0292 271.776 100.174 272.85C97.5602 273.101 94.9082 273.975 93.2742 270.672C92.7742 269.655 91.1442 269.193 90.0322 268.472L91.6012 268.172" fill="#ADEF50"/>
<path d="M79.8428 251.592C78.3168 255.325 78.7068 259.31 78.3188 263.192L77.1188 263.247C76.6388 258.988 77.5558 254.836 78.0848 250.655C78.7958 250.736 79.6558 250.537 79.8478 251.592" fill="#28272F"/>
<path d="M300.539 160.227C304.733 159.922 308.944 159.922 313.139 160.227C308.946 160.564 304.732 160.564 300.539 160.227Z" fill="#28272F"/>
<path d="M91.0949 197.666L90.5889 197.174L90.9329 197.006C90.9849 197.229 91.0329 197.453 91.0839 197.678L91.0949 197.667" fill="#FCFCFC"/>
<path d="M421.979 160.001C421.933 159.951 421.905 159.886 421.901 159.818C421.898 159.75 421.918 159.683 421.958 159.628C422.213 159.571 422.468 159.513 422.721 159.454C422.969 160.309 422.38 160.028 421.979 160.001" fill="#D0E0FC"/>
<path d="M117.72 74.965C117.873 76.815 117.41 77.9589 115.231 77.1309C114.97 75.1719 115.631 72.983 113.668 70.788V77.112C113.368 77.061 113.06 77.0803 112.768 77.1682C112.477 77.2561 112.21 77.4104 111.988 77.6188C111.766 77.8273 111.595 78.0843 111.489 78.3697C111.383 78.6551 111.345 78.9612 111.377 79.264C111.296 80.955 110.798 82.672 110.977 84.322C111.27 87.013 110.021 88.562 107.87 89.722C99.5758 96.483 89.1968 99.108 79.8848 103.847C78.0018 104.806 77.5178 104.005 77.3058 102.418C77.0368 100.393 75.5398 98.218 78.0828 96.495C78.3898 96.286 78.3398 95.344 78.2408 94.777C76.8171 86.4527 76.1056 78.0221 76.1138 69.577C76.1138 69.421 75.8478 69.267 75.5658 68.96C74.2938 69.971 74.7148 71.386 74.6868 72.599C74.6455 79.4576 75.2891 86.3032 76.6078 93.034C77.0368 95.443 76.3748 96.613 74.3348 97.634C69.5348 100.034 64.4608 100.202 59.2768 99.854C58.7872 99.8599 58.312 99.6878 57.9396 99.3698C57.5671 99.0519 57.3228 98.6095 57.2518 98.125C54.2718 86.459 52.7058 74.748 57.2298 63.125C59.7778 56.579 63.7458 51.106 70.5628 48.247C72.9628 47.239 74.4288 47.4229 75.7068 50.1399C77.732 54.4827 80.592 58.3845 84.1238 61.6229C85.5453 62.9682 87.1189 64.1428 88.8128 65.1229C97.1438 69.7229 104.482 65.532 104.875 56.008C104.951 54.184 104.886 52.352 104.886 50.379C107.786 50.507 109.526 52.579 111.139 54.659C115.095 59.769 116.487 65.831 117.326 72.07C117.455 73.035 117.59 73.998 117.726 74.961" fill="#FCFCFC"/>
<path d="M108.652 91.1048C108.496 92.9318 108.129 94.5108 111.175 94.3048C112.238 94.2318 113.575 96.3918 115.812 95.4048C114.355 96.8998 113.846 98.1298 115.854 99.0798C115.351 99.3562 114.863 99.66 114.393 99.9898C116.063 103.367 112.761 103.403 111.308 104.174C100.408 109.951 89.435 115.583 78.443 121.174C73.361 123.76 70.635 122.617 68.543 117.213C66.569 112.113 64.65 106.983 62.51 101.35C66.894 101.839 70.744 102.583 74.61 101.75C75.486 101.562 75.92 102.287 76.021 103.065C76.14 103.972 76.731 105.016 75.581 105.698C75.0789 105.886 74.6424 106.216 74.3248 106.648C74.0073 107.08 73.8225 107.595 73.793 108.131C85.736 102.143 98.13 98.6568 108.648 91.1018" fill="#FCFCFC"/>
<path d="M87.1379 39.6169C87.3109 38.6929 87.4839 37.7689 87.7989 36.0999C90.0399 39.8429 92.6639 41.8939 96.6329 41.2129C96.8479 44.7539 97.5749 47.8989 101.751 48.8499C103.027 49.1399 103.068 50.4859 103.251 51.5609C104.251 57.3309 102.586 63.1779 99.0269 64.7059C93.8189 66.9429 89.5179 64.5759 85.6869 61.1749C81.8869 57.8039 79.1869 53.5859 76.6729 49.2159C75.7109 47.5439 76.0279 46.8449 77.8629 46.5599C79.3119 46.3339 80.7499 46.0339 82.1759 45.6919C83.7059 45.3249 85.0869 45.2349 85.8119 48.1589C86.6404 45.3856 87.0849 42.5118 87.1329 39.6179" fill="#FCFCFC"/>
<path d="M108.798 108.255C106.596 109.849 104.15 111.076 101.555 111.886L101.105 111.086L108.313 107.465L108.798 108.255Z" fill="#ADE9C9"/>
<path d="M98.9478 112.36C99.2408 112.827 98.8998 112.947 98.5608 112.999C98.4098 113.023 98.2358 112.892 98.0718 112.831C98.3788 112.695 98.6848 112.558 98.9918 112.42L98.9478 112.36Z" fill="#ADE9C9"/>
<path d="M98.9919 112.421C99.3099 111.921 99.7059 111.576 100.342 111.85C100.414 111.881 100.488 112.118 100.451 112.156C100.268 112.366 100.015 112.503 99.7396 112.541C99.4638 112.578 99.1835 112.515 98.9509 112.362L98.9929 112.421" fill="#ADE9C9"/>
<path d="M108.602 90.3949C108.868 90.5599 109.369 90.7499 109.355 90.8889C109.316 91.2889 108.955 91.3639 108.585 91.1889L108.602 90.3889" fill="#FCFCFC"/>
<path d="M108.314 107.468C108.674 107.354 109.075 106.845 109.397 107.394C109.719 107.943 109.132 108.055 108.797 108.255L108.314 107.468Z" fill="#ADE9C9"/>
<path d="M110.536 107.183L110.055 106.923C110.136 106.843 110.233 106.683 110.295 106.697C110.467 106.752 110.632 106.827 110.787 106.921C110.707 107.002 110.628 107.085 110.536 107.182" fill="#ADE9C9"/>
<path d="M107.341 27.8418C106.641 30.0793 105.366 32.0933 103.642 33.6818C101.918 35.2704 99.806 36.3774 97.5189 36.8918C91.9079 37.4298 87.4999 35.5148 84.5789 30.5588C83.7109 29.0868 83.0839 27.7668 85.4669 26.9858C86.4097 26.6896 87.1981 26.0344 87.6619 25.1618C89.6169 19.9678 92.4689 21.2218 96.0029 23.5228C98.5359 25.1718 101.646 25.7148 104.603 26.4358C105.617 26.6828 106.869 26.5228 107.342 27.8418" fill="#FCFCFC"/>
<path d="M113.667 77.116V70.792C115.63 72.987 114.967 75.176 115.231 77.135L113.667 77.117" fill="#28272F"/>
<path d="M117.787 98.046C117.679 97.824 117.509 97.629 117.509 97.435C117.509 97.241 117.673 97.035 117.766 96.835C117.866 97.028 118.039 97.219 118.044 97.416C118.049 97.613 117.888 97.816 117.787 98.044" fill="#28272F"/>
<path d="M116.376 142.019C124.727 136.525 132.076 129.532 141.376 125.459C150.063 121.543 159.335 119.08 168.82 118.169C176.174 117.517 183.489 117.945 190.811 117.581C193.238 117.46 193.932 118.347 193.962 120.732C194.071 129.314 194.157 129.311 186.081 126.608C185.153 126.297 184.216 126.016 183.288 125.708C175.449 123.108 175.449 123.108 170.457 129.971C166.289 135.705 166.323 135.586 173.215 137.577C179.197 139.306 185.057 141.459 191.039 143.192C193.43 143.885 194.02 145.178 193.949 147.452C193.817 151.614 193.933 155.784 193.949 159.952C176.204 160.004 158.459 160.055 140.713 160.106C133.246 160.127 125.78 160.142 118.313 160.152C116.873 154.22 116.222 148.123 116.378 142.021" fill="#E5E5E5"/>
<path d="M200.52 159.958C200.533 156.898 200.546 153.838 200.559 150.779C200.586 146.632 200.952 146.37 205.059 147.679C212.159 149.931 219.323 151.99 226.305 154.553C229.972 155.898 232.995 156.006 236.195 153.553C238.207 152.008 240.654 151.037 242.864 149.737C243.641 149.28 245.059 149.206 244.869 147.97C244.708 146.911 243.412 146.744 242.53 146.436C231.818 142.678 221.107 138.913 210.36 135.26C200.014 131.743 200.052 131.802 200.512 120.818C200.612 118.445 201.478 117.586 203.812 117.596C216.668 117.656 229.526 117.488 242.379 117.69C248.067 117.78 252.579 120.712 256.161 125.066C262.89 133.258 269.611 141.458 276.323 149.666C278.951 152.893 278.654 156.401 277.063 159.966C257.648 160.016 238.234 160.063 218.819 160.106C212.719 160.114 206.619 160.018 200.514 159.969" fill="#E5E5E5"/>
<path d="M418.411 157.558C417.686 159.258 416.157 158.75 414.898 158.751C377.169 158.786 339.44 158.814 301.711 158.834C300.807 158.884 299.903 158.741 299.059 158.413C298.215 158.085 297.45 157.581 296.817 156.934C286.631 146.874 276.356 136.905 266.129 126.886C264.393 125.186 262.329 123.523 263.429 120.619C264.579 117.586 267.201 117.601 269.857 117.603C291.905 117.613 313.954 117.605 336.004 117.579C347.047 122.213 357.613 127.851 368.381 133.06C385.096 141.147 401.737 149.387 418.409 157.56M317.273 123.104C318.036 124.494 319.322 124.719 320.373 125.223C329.957 129.817 339.796 133.94 349.104 139.034C359.008 144.515 370.152 147.363 381.471 147.307C380.956 146.314 379.658 146.107 378.624 145.6C366.563 139.654 354.224 134.2 342.484 127.687C334.836 123.363 325.953 121.748 317.272 123.103M341.314 147.803C339.94 146.941 339.561 146.653 339.143 146.447C323.666 138.828 308.27 131.032 292.653 123.71C287.643 121.36 282.032 122.986 276.253 122.957C277.466 124.77 278.84 125.097 280.021 125.663C290.492 130.689 301.264 135.169 311.384 140.819C320.523 145.919 330.341 146.535 341.309 147.802" fill="#E5E5E5"/>
<path d="M239.394 180.128C237.933 180.128 236.472 180.128 235.01 180.128C233.755 180.122 232.848 179.613 232.765 178.269C232.679 176.889 233.559 176.269 234.812 176.254C237.977 176.216 241.142 176.223 244.307 176.275C244.553 176.252 244.801 176.282 245.035 176.363C245.268 176.444 245.482 176.575 245.66 176.745C245.839 176.916 245.979 177.123 246.071 177.352C246.163 177.582 246.205 177.828 246.194 178.075C246.223 178.351 246.19 178.63 246.097 178.891C246.004 179.152 245.853 179.39 245.656 179.585C245.459 179.78 245.22 179.928 244.958 180.019C244.696 180.109 244.416 180.139 244.141 180.107C242.559 180.146 240.976 180.115 239.393 180.115L239.394 180.128Z" fill="#050605"/>
<path d="M163.189 180.121C161.722 180.121 160.254 180.128 158.789 180.121C158.512 180.149 158.232 180.117 157.969 180.026C157.706 179.935 157.466 179.787 157.266 179.594C157.066 179.4 156.91 179.165 156.811 178.905C156.711 178.645 156.67 178.366 156.689 178.089C156.681 177.841 156.725 177.594 156.818 177.364C156.912 177.134 157.053 176.926 157.232 176.754C157.412 176.583 157.625 176.451 157.859 176.367C158.093 176.283 158.341 176.25 158.589 176.269C161.889 176.248 165.189 176.235 168.489 176.317C168.737 176.31 168.984 176.357 169.213 176.454C169.441 176.552 169.645 176.698 169.812 176.883C169.978 177.068 170.102 177.286 170.175 177.524C170.248 177.761 170.269 178.012 170.236 178.258C170.235 178.505 170.185 178.75 170.088 178.978C169.99 179.205 169.848 179.411 169.669 179.582C169.491 179.753 169.28 179.887 169.048 179.975C168.817 180.063 168.57 180.103 168.323 180.094C166.612 180.133 164.9 180.104 163.189 180.104V180.121Z" fill="#050605"/>
<path d="M15.9168 262.248C24.9082 238.905 33.9002 215.563 42.8929 192.222L44.1859 192.722L17.2068 262.747L15.9128 262.247" fill="#28272F"/>
<path d="M398.645 267.895C398.585 267.995 398.501 268.17 398.47 268.161C398.257 268.121 398.054 268.037 397.875 267.914C397.562 267.647 397.638 267.53 398.032 267.652C398.241 267.717 398.441 267.809 398.645 267.895" fill="#95D57C"/>
<path d="M399.899 260.276L400.199 260.437L400.071 260.569L399.899 260.276Z" fill="#95D57C"/>
<path d="M77.1149 263.247L78.3149 263.191C78.2249 263.952 79.4899 264.718 78.3079 265.477C77.2689 265.077 77.2789 264.115 77.1079 263.247" fill="#050605"/>
<path d="M317.27 123.102C325.95 121.747 334.834 123.362 342.482 127.686C354.225 134.204 366.561 139.653 378.622 145.599C379.656 146.108 380.954 146.313 381.469 147.306C370.15 147.362 359.006 144.514 349.102 139.033C339.794 133.938 329.955 129.816 320.371 125.222C319.321 124.722 318.035 124.493 317.271 123.103" fill="#FCFCFC"/>
<path d="M341.315 147.801C330.348 146.533 320.529 145.919 311.39 140.818C301.27 135.168 290.498 130.688 280.027 125.662C278.846 125.096 277.472 124.769 276.259 122.956C282.034 122.986 287.644 121.356 292.659 123.709C308.276 131.03 323.672 138.827 339.149 146.446C339.567 146.652 339.949 146.94 341.32 147.802" fill="#FCFCFC"/>
</svg>
